<svg id="yoga_x5F_outfit" enable-background="new 0 0 300 300" height="512" viewBox="0 0 300 300" width="512" xmlns="http://www.w3.org/2000/svg"><circle cx="138" cy="148" fill="#efefd2" r="86"/><g fill="#4c241d"><path d="m52 58c-2.209 0-4-1.791-4-4v-12c0-2.209 1.791-4 4-4s4 1.791 4 4v12c0 2.209-1.791 4-4 4z"/><path d="m52 86c-2.209 0-4-1.791-4-4v-12c0-2.209 1.791-4 4-4s4 1.791 4 4v12c0 2.209-1.791 4-4 4z"/><path d="m44 66h-12c-2.209 0-4-1.791-4-4s1.791-4 4-4h12c2.209 0 4 1.791 4 4s-1.791 4-4 4z"/><path d="m72 66h-12c-2.209 0-4-1.791-4-4s1.791-4 4-4h12c2.209 0 4 1.791 4 4s-1.791 4-4 4z"/><path d="m248 210c-2.209 0-4-1.791-4-4v-12c0-2.209 1.791-4 4-4s4 1.791 4 4v12c0 2.209-1.791 4-4 4z"/><path d="m248 238c-2.209 0-4-1.791-4-4v-12c0-2.209 1.791-4 4-4s4 1.791 4 4v12c0 2.209-1.791 4-4 4z"/><path d="m240 218h-12c-2.209 0-4-1.791-4-4s1.791-4 4-4h12c2.209 0 4 1.791 4 4s-1.791 4-4 4z"/><path d="m268 218h-12c-2.209 0-4-1.791-4-4s1.791-4 4-4h12c2.209 0 4 1.791 4 4s-1.791 4-4 4z"/><circle cx="76" cy="106" r="4"/><circle cx="76" cy="254" r="4"/><circle cx="240" cy="118" r="4"/><path d="m234 74c-7.72 0-14-6.28-14-14s6.28-14 14-14 14 6.28 14 14-6.28 14-14 14zm0-20c-3.309 0-6 2.691-6 6s2.691 6 6 6 6-2.691 6-6-2.691-6-6-6z"/><path d="m58 214c-7.72 0-14-6.28-14-14s6.28-14 14-14 14 6.28 14 14-6.28 14-14 14zm0-20c-3.309 0-6 2.691-6 6s2.691 6 6 6 6-2.691 6-6-2.691-6-6-6z"/></g><path d="m188 86v-20h-16v28c0 11.046-8.954 20-20 20s-20-8.954-20-20v-28h-16v20c0 10.089-4.68 19.074-11.975 24.94l3.498 39.06h88.954l3.498-39.06c-7.295-5.866-11.975-14.851-11.975-24.94z" fill="#bd53b5"/><path d="m196.477 154h-88.954c-2.071 0-3.799-1.58-3.984-3.644l-3.499-39.061c-.12-1.332.435-2.636 1.478-3.474 6.662-5.354 10.482-13.308 10.482-21.821v-20c0-2.209 1.791-4 4-4h16c2.209 0 4 1.791 4 4v28c0 8.822 7.178 16 16 16s16-7.178 16-16v-28c0-2.209 1.791-4 4-4h16c2.209 0 4 1.791 4 4v20c0 8.513 3.82 16.467 10.481 21.822 1.042.838 1.597 2.142 1.478 3.474l-3.498 39.061c-.185 2.062-1.913 3.643-3.984 3.643zm-85.296-8h81.638l2.988-33.362c-7.531-6.829-11.807-16.418-11.807-26.638v-16h-8v24c0 13.233-10.766 24-24 24s-24-10.767-24-24v-24h-8v16c0 10.219-4.277 19.81-11.807 26.638z" fill="#4c241d"/><path d="m195.979 170h-87.958v88h36.569l7.41-44 11.238 44h32.741z" fill="#9dc1e4"/><path d="m195.979 262h-32.741c-1.828 0-3.423-1.239-3.875-3.01l-6.558-25.679-4.27 25.353c-.324 1.926-1.992 3.336-3.944 3.336h-36.569c-2.209 0-4-1.791-4-4v-88c0-2.209 1.791-4 4-4h87.958c2.209 0 4 1.791 4 4v88c-.001 2.209-1.792 4-4.001 4zm-29.634-8h25.634v-80h-79.958v80h29.186l6.849-40.664c.314-1.864 1.89-3.254 3.778-3.332 1.897-.089 3.575 1.175 4.042 3.006z" fill="#4c241d"/><path d="m106.449 138 1.074 12h88.954l1.075-12z" fill="#ffce56"/><path d="m196.477 154h-88.954c-2.071 0-3.799-1.581-3.984-3.644l-1.075-12c-.1-1.118.274-2.228 1.032-3.056.757-.829 1.829-1.301 2.952-1.301h91.103c1.123 0 2.194.472 2.952 1.301.758.828 1.132 1.938 1.032 3.056l-1.075 12c-.184 2.063-1.912 3.644-3.983 3.644zm-85.296-8h81.638l.358-4h-82.355z" fill="#4c241d"/><path d="m136 190h-28c-2.209 0-4-1.791-4-4s1.791-4 4-4h28c2.209 0 4 1.791 4 4s-1.791 4-4 4z" fill="#4c241d"/></svg>